<?xml version="1.0" encoding="UTF-8" standalone="no"?><!DOCTYPE svg PUBLIC "-//W3C//DTD SVG 1.1//EN" "http://www.w3.org/Graphics/SVG/1.1/DTD/svg11.dtd"><svg width="100%" height="100%" viewBox="0 0 679 610" version="1.1" xmlns="http://www.w3.org/2000/svg" xmlns:xlink="http://www.w3.org/1999/xlink" xml:space="preserve" xmlns:serif="http://www.serif.com/" style="fill-rule:evenodd;clip-rule:evenodd;stroke-miterlimit:2;"><path d="M310.145,516.995c-4.834,11.351 -9.167,19.189 -12.998,23.516c-15.448,23.986 -37.654,35.979 -66.617,35.979c-28.964,0 -51.17,-11.993 -66.618,-35.979c-6.865,-8.525 -16.627,-31.52 -29.285,-68.986l-102.018,-379.421l63.077,0l102.018,373.474c4.076,14.868 7.509,24.977 10.298,30.33c5.793,11.101 13.302,16.552 22.528,16.354c9.225,0.198 16.734,-5.253 22.527,-16.354c2.789,-5.353 6.222,-15.462 10.298,-30.33l4.384,-16.046l83.878,-311.958c2.163,-6.404 4.242,-12.385 6.237,-17.943c3.86,-10.76 7.404,-19.936 10.63,-27.527c4.859,-11.43 8.998,-19.268 12.418,-23.515c15.448,-23.986 37.653,-35.98 66.617,-35.98c28.964,0 51.17,11.994 66.617,35.98c7.724,8.722 17.486,31.717 29.286,68.985l102.018,379.421l-63.077,0l-102.018,-373.473c-4.076,-14.868 -7.509,-24.978 -10.298,-30.33c-5.793,-11.101 -13.302,-16.553 -22.528,-16.355c-9.225,-0.198 -16.734,5.254 -22.527,16.355c-2.789,5.352 -6.222,15.462 -10.298,30.33l-4.384,16.046l-83.878,311.957c-2.59,8.18 -5.081,15.672 -7.475,22.477c-3.102,8.819 -6.04,16.484 -8.812,22.993Z" style="fill:#2b47ff;stroke:#2b47ff;stroke-width:29.17px;"/></svg>