<svg width="54" height="54" viewBox="0 0 54 54" fill="none" xmlns="http://www.w3.org/2000/svg">
<g clip-path="url(#clip0_236_2)">
<path fill-rule="evenodd" clip-rule="evenodd" d="M38.1128 46.5062C46.3608 46.5346 53.0303 43.2451 53.0475 38.2764L53.1559 6.8078C53.1674 3.49532 46.5538 0.160001 38.2726 0.131457C29.9914 0.102913 23.355 3.39256 23.3436 6.70504L23.3037 18.2987C27.1737 19.9352 30.4768 22.6628 32.8168 26.1159C34.4388 26.4395 36.2269 26.6213 38.1813 26.628C42.5206 26.6429 46.1342 25.7908 48.7228 24.3919C49.0903 24.1916 49.4481 23.974 49.795 23.7397L49.7792 28.311C49.7766 29.0894 49.153 30.2963 47.1119 31.4023C45.134 32.472 42.1037 33.2533 38.1618 33.2397C37.3734 33.237 36.6227 33.2046 35.9096 33.1425C36.1709 34.2321 36.3437 35.3479 36.4281 36.4899C36.9867 36.5228 37.5608 36.5402 38.1504 36.5423C42.4898 36.5572 46.1034 35.7051 48.6919 34.3062C49.0594 34.1059 49.4172 33.8882 49.7641 33.654L49.7484 38.2252C49.7457 39.007 49.2481 40.1647 47.1176 41.3034C45.0202 42.4225 41.8774 43.1669 38.1343 43.154C37.3724 43.1514 36.6349 43.1179 35.9218 43.0536C35.6634 44.1537 35.3174 45.2315 34.8872 46.2764C35.9291 46.3971 37.0065 46.4593 38.1195 46.4631L38.1128 46.5062ZM47.1428 21.4947C49.1838 20.3887 49.8074 19.1818 49.8101 18.4033L49.8258 13.8321C49.4827 14.065 49.1253 14.2824 48.7536 14.4843C46.1717 15.8832 42.5515 16.7353 38.2121 16.7203C33.8728 16.7054 30.2652 15.8284 27.6863 14.4117C27.3202 14.2088 26.9639 13.9887 26.6186 13.7521L26.6028 18.3233C26.6002 19.1018 27.2154 20.313 29.2488 21.4297C31.2193 22.513 34.2442 23.3151 38.186 23.3287C42.1279 23.3423 45.145 22.561 47.1362 21.4913L47.1428 21.4947ZM26.6504 8.3727C26.6537 7.4187 27.0709 6.50257 27.8446 5.94542C28.2664 5.64213 28.7245 5.33895 29.0862 5.17457C29.9919 4.76032 34.5247 3.42775 38.2678 3.44065C42.0109 3.45355 45.2546 4.21667 47.4373 5.23783C47.8474 5.42805 48.3002 5.72443 48.7 6.01731C49.4633 6.57313 49.8543 7.48542 49.8511 8.42948L49.851 8.44935C49.8483 9.22779 49.2247 10.4347 47.1837 11.5407C45.2058 12.6104 42.1754 13.3917 38.2336 13.3781C34.2917 13.3645 31.2801 12.5591 29.2963 11.479C27.263 10.3623 26.6477 9.14782 26.6504 8.3727Z" fill="white"/>
<path fill-rule="evenodd" clip-rule="evenodd" d="M29.8603 38.1964C29.8319 46.4445 23.1508 53.0796 14.9028 53.0512C6.65469 53.0228 0.0195564 46.3417 0.0479862 38.0937C0.0764159 29.8456 6.75745 23.2104 15.0055 23.2389C23.2536 23.2673 29.8887 29.9483 29.8603 38.1964ZM26.5478 38.185C26.5258 44.5781 21.3073 49.7608 14.9142 49.7387C8.5211 49.7167 3.33843 44.4982 3.36047 38.1051C3.3825 31.712 8.60102 26.5293 14.9941 26.5514C21.3872 26.5734 26.5699 31.7919 26.5478 38.185Z" fill="white"/>
</g>
<defs>
<clipPath id="clip0_236_2">
<rect width="53" height="53" fill="white" transform="translate(0.179199) rotate(0.197488)"/>
</clipPath>
</defs>
</svg>
