<svg width="53" height="53" viewBox="0 0 53 53" fill="none" xmlns="http://www.w3.org/2000/svg">
<path d="M44.0276 7.80393C44.4137 7.7055 44.8195 7.71545 45.2003 7.83268C45.5812 7.94992 45.9223 8.1699 46.1862 8.46845C46.4501 8.76699 46.6266 9.13253 46.6962 9.52486C46.7658 9.9172 46.7259 10.3211 46.5808 10.6923L33.4652 44.2306C33.3354 44.5628 33.1257 44.8578 32.8546 45.0895C32.5835 45.3211 32.2594 45.4823 31.9111 45.5587C31.5627 45.6351 31.2009 45.6243 30.8578 45.5273C30.5146 45.4304 30.2006 45.2502 29.9438 45.0028L22.6404 37.9684L20.0249 40.5637C18.6421 41.937 16.2882 40.9539 16.2949 39.0039L16.3195 31.8799L5.10944 21.0837C4.83131 20.8158 4.62984 20.4784 4.52591 20.1064C4.42197 19.7344 4.41934 19.3415 4.5183 18.9682C4.61725 18.5948 4.81419 18.2548 5.08872 17.9831C5.36325 17.7115 5.70539 17.5182 6.07973 17.4232L44.0276 7.80393ZM39.4152 17.1156L22.0369 31.3709L30.6102 39.6295L39.4152 17.1156ZM36.0058 14.3088L10.9219 20.6639L18.8948 28.3398L36.0058 14.3045L36.0058 14.3088Z" fill="black"/>
</svg>
