<svg width="53" height="53" viewBox="0 0 53 53" fill="none" xmlns="http://www.w3.org/2000/svg">
<path d="M13.0298 43.371C12.4159 43.3688 11.9024 43.1591 11.4892 42.7416C11.0761 42.3242 10.8699 41.8093 10.8706 41.1968C10.8712 40.5844 11.081 40.0709 11.4999 39.6563C11.9188 39.2418 12.4337 39.0355 13.0447 39.0376L39.0445 39.1273C39.6584 39.1294 40.1726 39.3392 40.5872 39.7566C41.0018 40.174 41.2073 40.6889 41.2037 41.3014C41.2002 41.9138 40.9904 42.428 40.5744 42.8441C40.1584 43.2601 39.6435 43.4656 39.0296 43.4606L13.0298 43.371ZM14.5725 35.7929C13.5253 35.7893 12.597 35.443 11.7876 34.7541C10.9782 34.0652 10.4843 33.1968 10.3059 32.149L8.18669 18.3833C8.11446 18.383 8.03354 18.3921 7.94392 18.4106C7.8543 18.4291 7.77266 18.4375 7.699 18.4358C6.79623 18.4327 6.03032 18.1144 5.40128 17.481C4.77224 16.8476 4.45855 16.0788 4.46022 15.1746C4.4619 14.2704 4.78087 13.5045 5.41715 12.8769C6.05343 12.2493 6.82151 11.9356 7.72141 11.9358C8.6213 11.936 9.38793 12.255 10.0213 12.8927C10.6546 13.5305 10.9676 14.2986 10.9602 15.197C10.9593 15.4498 10.9311 15.6844 10.8754 15.9009C10.8198 16.1173 10.7563 16.3157 10.6849 16.496L17.4452 19.5527L24.2479 10.3136C23.8517 10.0233 23.528 9.64305 23.2769 9.17274C23.0257 8.70242 22.9011 8.19644 22.9029 7.65477C22.906 6.752 23.225 5.98537 23.8599 5.35489C24.4947 4.72441 25.2628 4.41144 26.1641 4.41599C27.0654 4.42055 27.8321 4.73952 28.464 5.37293C29.0959 6.00633 29.4089 6.77441 29.4029 7.67718C29.401 8.21884 29.2729 8.72396 29.0185 9.19253C28.7641 9.6611 28.4378 10.0391 28.0396 10.3267L34.7784 19.6124L41.5597 16.6025C41.4881 16.4217 41.4252 16.2228 41.3711 16.006C41.3169 15.7891 41.291 15.5543 41.2933 15.3015C41.2964 14.3988 41.6154 13.6321 42.2503 13.0017C42.8851 12.3712 43.6532 12.0582 44.5545 12.0628C45.4558 12.0673 46.2225 12.3863 46.8544 13.0197C47.4863 13.6531 47.7993 14.4212 47.7933 15.3239C47.7873 16.2267 47.469 16.9933 46.8385 17.6238C46.208 18.2543 45.4392 18.5673 44.5321 18.5627C44.4599 18.5625 44.379 18.5535 44.2895 18.5359C44.2 18.5182 44.1185 18.5086 44.0448 18.5069L41.8307 32.2577C41.6466 33.3043 41.1474 34.1692 40.3333 34.8525C39.5191 35.5358 38.5877 35.8757 37.5391 35.8721L14.5725 35.7929ZM14.5875 31.4596L37.554 31.5387L38.9935 22.4978L36.4981 23.5726C35.5579 23.9665 34.6007 24.0355 33.6266 23.7793C32.6524 23.5232 31.8599 22.9788 31.2489 22.1461L26.1275 15.0326L20.9572 22.1107C20.3405 22.9391 19.5442 23.478 18.5683 23.7274C17.5925 23.9768 16.6358 23.9013 15.6983 23.5009L13.2103 22.409L14.5875 31.4596Z" fill="white"/>
</svg>
