<svg width="54" height="55" viewBox="0 0 54 55" fill="none" xmlns="http://www.w3.org/2000/svg">
<path d="M40.898 27.6269C39.0506 26.0675 36.6981 25.235 34.2811 25.2854L18.7455 25.2318C18.0371 25.2473 17.3329 25.1196 16.675 24.8565C16.0171 24.5934 15.4191 24.2002 14.9167 23.7006C14.4143 23.2009 14.0179 22.605 13.7512 21.9486C13.4845 21.2921 13.353 20.5886 13.3646 19.8801C13.3482 19.6043 13.3492 19.3277 13.3674 19.052C13.5807 17.7867 14.2484 16.6428 15.2454 15.835C16.2424 15.0272 17.4999 14.6112 18.7819 14.665L34.0856 14.7178C35.334 14.721 36.5406 15.1675 37.4903 15.9776C38.44 16.7878 39.0711 17.909 39.271 19.1413L44.2397 19.1584C44.0405 16.6035 42.8872 14.2172 41.009 12.4738C39.1308 10.7305 36.6653 9.75773 34.1027 9.74903L28.869 9.73099L28.8953 2.11229L24.7547 2.09801L24.7284 9.71672L18.7991 9.69628C16.2365 9.68731 13.7644 10.643 11.8742 12.3734C9.98402 14.1038 8.81425 16.4821 8.59745 19.0355C8.57923 19.3113 8.57827 19.5878 8.59459 19.8637C8.58999 21.1991 8.84847 22.5224 9.35527 23.758C9.86207 24.9935 10.6073 26.1172 11.5483 27.0647C13.4489 28.9784 16.0318 30.0587 18.7289 30.068L34.43 30.1222C35.1328 30.1069 35.8315 30.2325 36.485 30.4915C37.1385 30.7505 37.7335 31.1377 38.235 31.6303C38.7365 32.1228 39.1344 32.7108 39.4051 33.3596C39.6757 34.0083 39.8138 34.7047 39.8112 35.4076C39.8419 35.7825 39.8406 36.1592 39.8073 36.5338C39.5403 37.6984 38.8852 38.7377 37.9497 39.4808C37.0141 40.224 35.8536 40.627 34.6588 40.6236L19.0902 40.57C17.8953 40.5651 16.7377 40.1541 15.8073 39.4045C14.8769 38.6549 14.229 37.6112 13.97 36.4448L8.96813 36.4276C9.24422 38.9174 10.4267 41.2186 12.2902 42.8927C14.1537 44.5669 16.5681 45.4969 19.0731 45.5056L24.605 45.5246L24.5791 53.044L28.7197 53.0582L28.7456 45.5389L34.3768 45.5583C36.8819 45.5669 39.3026 44.6536 41.1776 42.9923C43.0526 41.3311 44.2509 39.038 44.5442 36.5502L44.548 35.4239C44.5492 33.9361 44.2228 32.4662 43.5919 31.1187C42.9611 29.7712 42.0414 28.579 40.898 27.6269Z" fill="white"/>
</svg>
